<?xml version="1.0" encoding="utf-8" standalone="no"?>
<!DOCTYPE svg PUBLIC "-//W3C//DTD SVG 1.1//EN"
  "http://www.w3.org/Graphics/SVG/1.1/DTD/svg11.dtd">
<!-- Created with matplotlib (http://matplotlib.org/) -->
<svg height="432pt" version="1.1" viewBox="0 0 576 432" width="576pt" xmlns="http://www.w3.org/2000/svg" xmlns:xlink="http://www.w3.org/1999/xlink">
 <defs>
  <style type="text/css">
*{stroke-linecap:butt;stroke-linejoin:round;stroke-miterlimit:100000;}
  </style>
 </defs>
 <g id="figure_1">
  <g id="patch_1">
   <path d="M 0 432 
L 576 432 
L 576 0 
L 0 0 
z
" style="fill:#ffffff;"/>
  </g>
  <g id="axes_1">
   <g id="patch_2">
    <path d="M 72 388.8 
L 518.4 388.8 
L 518.4 43.2 
L 72 43.2 
z
" style="fill:#ffffff;"/>
   </g>
   <g id="line2d_1">
    <defs>
     <path d="M 0 3 
C 0.795609 3 1.55874 2.683901 2.12132 2.12132 
C 2.683901 1.55874 3 0.795609 3 0 
C 3 -0.795609 2.683901 -1.55874 2.12132 -2.12132 
C 1.55874 -2.683901 0.795609 -3 0 -3 
C -0.795609 -3 -1.55874 -2.683901 -2.12132 -2.12132 
C -2.683901 -1.55874 -3 -0.795609 -3 0 
C -3 0.795609 -2.683901 1.55874 -2.12132 2.12132 
C -1.55874 2.683901 -0.795609 3 0 3 
z
" id="m1113e85c6f" style="stroke:#000000;stroke-width:0.5;"/>
    </defs>
    <g clip-path="url(#p070b5def87)">
     <use style="fill:#0000ff;stroke:#000000;stroke-width:0.5;" x="72.0" xlink:href="#m1113e85c6f" y="360.0"/>
     <use style="fill:#0000ff;stroke:#000000;stroke-width:0.5;" x="76.464" xlink:href="#m1113e85c6f" y="359.994239424"/>
     <use style="fill:#0000ff;stroke:#000000;stroke-width:0.5;" x="80.928" xlink:href="#m1113e85c6f" y="359.982714814"/>
     <use style="fill:#0000ff;stroke:#000000;stroke-width:0.5;" x="85.392" xlink:href="#m1113e85c6f" y="359.965419245"/>
     <use style="fill:#0000ff;stroke:#000000;stroke-width:0.5;" x="89.856" xlink:href="#m1113e85c6f" y="359.942342305"/>
     <use style="fill:#0000ff;stroke:#000000;stroke-width:0.5;" x="94.32" xlink:href="#m1113e85c6f" y="359.913470067"/>
     <use style="fill:#0000ff;stroke:#000000;stroke-width:0.5;" x="98.784" xlink:href="#m1113e85c6f" y="359.878785045"/>
     <use style="fill:#0000ff;stroke:#000000;stroke-width:0.5;" x="103.248" xlink:href="#m1113e85c6f" y="359.838266147"/>
     <use style="fill:#0000ff;stroke:#000000;stroke-width:0.5;" x="107.712" xlink:href="#m1113e85c6f" y="359.791888608"/>
     <use style="fill:#0000ff;stroke:#000000;stroke-width:0.5;" x="112.176" xlink:href="#m1113e85c6f" y="359.739623921"/>
     <use style="fill:#0000ff;stroke:#000000;stroke-width:0.5;" x="116.64" xlink:href="#m1113e85c6f" y="359.681439746"/>
     <use style="fill:#0000ff;stroke:#000000;stroke-width:0.5;" x="121.104" xlink:href="#m1113e85c6f" y="359.617299819"/>
     <use style="fill:#0000ff;stroke:#000000;stroke-width:0.5;" x="125.568" xlink:href="#m1113e85c6f" y="359.547163839"/>
     <use style="fill:#0000ff;stroke:#000000;stroke-width:0.5;" x="130.032" xlink:href="#m1113e85c6f" y="359.470987343"/>
     <use style="fill:#0000ff;stroke:#000000;stroke-width:0.5;" x="134.496" xlink:href="#m1113e85c6f" y="359.388721575"/>
     <use style="fill:#0000ff;stroke:#000000;stroke-width:0.5;" x="138.96" xlink:href="#m1113e85c6f" y="359.300313333"/>
     <use style="fill:#0000ff;stroke:#000000;stroke-width:0.5;" x="143.424" xlink:href="#m1113e85c6f" y="359.205704802"/>
     <use style="fill:#0000ff;stroke:#000000;stroke-width:0.5;" x="147.888" xlink:href="#m1113e85c6f" y="359.104833376"/>
     <use style="fill:#0000ff;stroke:#000000;stroke-width:0.5;" x="152.352" xlink:href="#m1113e85c6f" y="358.997631461"/>
     <use style="fill:#0000ff;stroke:#000000;stroke-width:0.5;" x="156.816" xlink:href="#m1113e85c6f" y="358.884026257"/>
     <use style="fill:#0000ff;stroke:#000000;stroke-width:0.5;" x="161.28" xlink:href="#m1113e85c6f" y="358.763939529"/>
     <use style="fill:#0000ff;stroke:#000000;stroke-width:0.5;" x="165.744" xlink:href="#m1113e85c6f" y="358.637287347"/>
     <use style="fill:#0000ff;stroke:#000000;stroke-width:0.5;" x="170.208" xlink:href="#m1113e85c6f" y="358.503979818"/>
     <use style="fill:#0000ff;stroke:#000000;stroke-width:0.5;" x="174.672" xlink:href="#m1113e85c6f" y="358.363920786"/>
     <use style="fill:#0000ff;stroke:#000000;stroke-width:0.5;" x="179.136" xlink:href="#m1113e85c6f" y="358.217007509"/>
     <use style="fill:#0000ff;stroke:#000000;stroke-width:0.5;" x="183.6" xlink:href="#m1113e85c6f" y="358.063130312"/>
     <use style="fill:#0000ff;stroke:#000000;stroke-width:0.5;" x="188.064" xlink:href="#m1113e85c6f" y="357.902172212"/>
     <use style="fill:#0000ff;stroke:#000000;stroke-width:0.5;" x="192.528" xlink:href="#m1113e85c6f" y="357.734008508"/>
     <use style="fill:#0000ff;stroke:#000000;stroke-width:0.5;" x="196.992" xlink:href="#m1113e85c6f" y="357.558506342"/>
     <use style="fill:#0000ff;stroke:#000000;stroke-width:0.5;" x="201.456" xlink:href="#m1113e85c6f" y="357.375524225"/>
     <use style="fill:#0000ff;stroke:#000000;stroke-width:0.5;" x="205.92" xlink:href="#m1113e85c6f" y="357.184911517"/>
     <use style="fill:#0000ff;stroke:#000000;stroke-width:0.5;" x="210.384" xlink:href="#m1113e85c6f" y="356.986507872"/>
     <use style="fill:#0000ff;stroke:#000000;stroke-width:0.5;" x="214.848" xlink:href="#m1113e85c6f" y="356.780142635"/>
     <use style="fill:#0000ff;stroke:#000000;stroke-width:0.5;" x="219.312" xlink:href="#m1113e85c6f" y="356.56563418"/>
     <use style="fill:#0000ff;stroke:#000000;stroke-width:0.5;" x="223.776" xlink:href="#m1113e85c6f" y="356.342789209"/>
     <use style="fill:#0000ff;stroke:#000000;stroke-width:0.5;" x="228.24" xlink:href="#m1113e85c6f" y="356.111401967"/>
     <use style="fill:#0000ff;stroke:#000000;stroke-width:0.5;" x="232.704" xlink:href="#m1113e85c6f" y="355.871253416"/>
     <use style="fill:#0000ff;stroke:#000000;stroke-width:0.5;" x="237.168" xlink:href="#m1113e85c6f" y="355.622110309"/>
     <use style="fill:#0000ff;stroke:#000000;stroke-width:0.5;" x="241.632" xlink:href="#m1113e85c6f" y="355.363724204"/>
     <use style="fill:#0000ff;stroke:#000000;stroke-width:0.5;" x="246.096" xlink:href="#m1113e85c6f" y="355.095830374"/>
     <use style="fill:#0000ff;stroke:#000000;stroke-width:0.5;" x="250.56" xlink:href="#m1113e85c6f" y="354.818146624"/>
     <use style="fill:#0000ff;stroke:#000000;stroke-width:0.5;" x="255.024" xlink:href="#m1113e85c6f" y="354.530371991"/>
     <use style="fill:#0000ff;stroke:#000000;stroke-width:0.5;" x="259.488" xlink:href="#m1113e85c6f" y="354.232185333"/>
     <use style="fill:#0000ff;stroke:#000000;stroke-width:0.5;" x="263.952" xlink:href="#m1113e85c6f" y="353.923243764"/>
     <use style="fill:#0000ff;stroke:#000000;stroke-width:0.5;" x="268.416" xlink:href="#m1113e85c6f" y="353.603180952"/>
     <use style="fill:#0000ff;stroke:#000000;stroke-width:0.5;" x="272.88" xlink:href="#m1113e85c6f" y="353.271605237"/>
     <use style="fill:#0000ff;stroke:#000000;stroke-width:0.5;" x="277.344" xlink:href="#m1113e85c6f" y="352.928097561"/>
     <use style="fill:#0000ff;stroke:#000000;stroke-width:0.5;" x="281.808" xlink:href="#m1113e85c6f" y="352.572209184"/>
     <use style="fill:#0000ff;stroke:#000000;stroke-width:0.5;" x="286.272" xlink:href="#m1113e85c6f" y="352.203459155"/>
     <use style="fill:#0000ff;stroke:#000000;stroke-width:0.5;" x="290.736" xlink:href="#m1113e85c6f" y="351.821331516"/>
     <use style="fill:#0000ff;stroke:#000000;stroke-width:0.5;" x="295.2" xlink:href="#m1113e85c6f" y="351.4252722"/>
     <use style="fill:#0000ff;stroke:#000000;stroke-width:0.5;" x="299.664" xlink:href="#m1113e85c6f" y="351.014685572"/>
     <use style="fill:#0000ff;stroke:#000000;stroke-width:0.5;" x="304.128" xlink:href="#m1113e85c6f" y="350.588930584"/>
     <use style="fill:#0000ff;stroke:#000000;stroke-width:0.5;" x="308.592" xlink:href="#m1113e85c6f" y="350.14731648"/>
     <use style="fill:#0000ff;stroke:#000000;stroke-width:0.5;" x="313.056" xlink:href="#m1113e85c6f" y="349.689097984"/>
     <use style="fill:#0000ff;stroke:#000000;stroke-width:0.5;" x="317.52" xlink:href="#m1113e85c6f" y="349.213469906"/>
     <use style="fill:#0000ff;stroke:#000000;stroke-width:0.5;" x="321.984" xlink:href="#m1113e85c6f" y="348.71956107"/>
     <use style="fill:#0000ff;stroke:#000000;stroke-width:0.5;" x="326.448" xlink:href="#m1113e85c6f" y="348.206427472"/>
     <use style="fill:#0000ff;stroke:#000000;stroke-width:0.5;" x="330.912" xlink:href="#m1113e85c6f" y="347.673044545"/>
     <use style="fill:#0000ff;stroke:#000000;stroke-width:0.5;" x="335.376" xlink:href="#m1113e85c6f" y="347.118298377"/>
     <use style="fill:#0000ff;stroke:#000000;stroke-width:0.5;" x="339.84" xlink:href="#m1113e85c6f" y="346.540975741"/>
     <use style="fill:#0000ff;stroke:#000000;stroke-width:0.5;" x="344.304" xlink:href="#m1113e85c6f" y="345.939752708"/>
     <use style="fill:#0000ff;stroke:#000000;stroke-width:0.5;" x="348.768" xlink:href="#m1113e85c6f" y="345.31318162"/>
     <use style="fill:#0000ff;stroke:#000000;stroke-width:0.5;" x="353.232" xlink:href="#m1113e85c6f" y="344.659676129"/>
     <use style="fill:#0000ff;stroke:#000000;stroke-width:0.5;" x="357.696" xlink:href="#m1113e85c6f" y="343.97749396"/>
     <use style="fill:#0000ff;stroke:#000000;stroke-width:0.5;" x="362.16" xlink:href="#m1113e85c6f" y="343.264716954"/>
     <use style="fill:#0000ff;stroke:#000000;stroke-width:0.5;" x="366.624" xlink:href="#m1113e85c6f" y="342.519227911"/>
     <use style="fill:#0000ff;stroke:#000000;stroke-width:0.5;" x="371.088" xlink:href="#m1113e85c6f" y="341.738683556"/>
     <use style="fill:#0000ff;stroke:#000000;stroke-width:0.5;" x="375.552" xlink:href="#m1113e85c6f" y="340.92048288"/>
     <use style="fill:#0000ff;stroke:#000000;stroke-width:0.5;" x="380.016" xlink:href="#m1113e85c6f" y="340.061729873"/>
     <use style="fill:#0000ff;stroke:#000000;stroke-width:0.5;" x="384.48" xlink:href="#m1113e85c6f" y="339.159189419"/>
     <use style="fill:#0000ff;stroke:#000000;stroke-width:0.5;" x="388.944" xlink:href="#m1113e85c6f" y="338.209234857"/>
     <use style="fill:#0000ff;stroke:#000000;stroke-width:0.5;" x="393.408" xlink:href="#m1113e85c6f" y="337.207785239"/>
     <use style="fill:#0000ff;stroke:#000000;stroke-width:0.5;" x="397.872" xlink:href="#m1113e85c6f" y="336.150229832"/>
     <use style="fill:#0000ff;stroke:#000000;stroke-width:0.5;" x="402.336" xlink:href="#m1113e85c6f" y="335.031336663"/>
     <use style="fill:#0000ff;stroke:#000000;stroke-width:0.5;" x="406.8" xlink:href="#m1113e85c6f" y="333.845140968"/>
     <use style="fill:#0000ff;stroke:#000000;stroke-width:0.5;" x="411.264" xlink:href="#m1113e85c6f" y="332.584808104"/>
     <use style="fill:#0000ff;stroke:#000000;stroke-width:0.5;" x="415.728" xlink:href="#m1113e85c6f" y="331.242463713"/>
     <use style="fill:#0000ff;stroke:#000000;stroke-width:0.5;" x="420.192" xlink:href="#m1113e85c6f" y="329.808981465"/>
     <use style="fill:#0000ff;stroke:#000000;stroke-width:0.5;" x="424.656" xlink:href="#m1113e85c6f" y="328.273715262"/>
     <use style="fill:#0000ff;stroke:#000000;stroke-width:0.5;" x="429.12" xlink:href="#m1113e85c6f" y="326.62415786"/>
     <use style="fill:#0000ff;stroke:#000000;stroke-width:0.5;" x="433.584" xlink:href="#m1113e85c6f" y="324.845500751"/>
     <use style="fill:#0000ff;stroke:#000000;stroke-width:0.5;" x="438.048" xlink:href="#m1113e85c6f" y="322.920059659"/>
     <use style="fill:#0000ff;stroke:#000000;stroke-width:0.5;" x="442.512" xlink:href="#m1113e85c6f" y="320.826514304"/>
     <use style="fill:#0000ff;stroke:#000000;stroke-width:0.5;" x="446.976" xlink:href="#m1113e85c6f" y="318.538886989"/>
     <use style="fill:#0000ff;stroke:#000000;stroke-width:0.5;" x="451.44" xlink:href="#m1113e85c6f" y="316.025146897"/>
     <use style="fill:#0000ff;stroke:#000000;stroke-width:0.5;" x="455.904" xlink:href="#m1113e85c6f" y="313.245266364"/>
     <use style="fill:#0000ff;stroke:#000000;stroke-width:0.5;" x="460.368" xlink:href="#m1113e85c6f" y="310.148455183"/>
     <use style="fill:#0000ff;stroke:#000000;stroke-width:0.5;" x="464.832" xlink:href="#m1113e85c6f" y="306.669127847"/>
     <use style="fill:#0000ff;stroke:#000000;stroke-width:0.5;" x="469.296" xlink:href="#m1113e85c6f" y="302.720855133"/>
     <use style="fill:#0000ff;stroke:#000000;stroke-width:0.5;" x="473.76" xlink:href="#m1113e85c6f" y="298.186990108"/>
     <use style="fill:#0000ff;stroke:#000000;stroke-width:0.5;" x="478.224" xlink:href="#m1113e85c6f" y="292.905567028"/>
     <use style="fill:#0000ff;stroke:#000000;stroke-width:0.5;" x="482.688" xlink:href="#m1113e85c6f" y="286.643820355"/>
     <use style="fill:#0000ff;stroke:#000000;stroke-width:0.5;" x="487.152" xlink:href="#m1113e85c6f" y="279.052685907"/>
     <use style="fill:#0000ff;stroke:#000000;stroke-width:0.5;" x="491.616" xlink:href="#m1113e85c6f" y="269.579598572"/>
     <use style="fill:#0000ff;stroke:#000000;stroke-width:0.5;" x="496.08" xlink:href="#m1113e85c6f" y="257.285370885"/>
     <use style="fill:#0000ff;stroke:#000000;stroke-width:0.5;" x="500.544" xlink:href="#m1113e85c6f" y="240.40927423"/>
     <use style="fill:#0000ff;stroke:#000000;stroke-width:0.5;" x="505.008" xlink:href="#m1113e85c6f" y="215.136704922"/>
     <use style="fill:#0000ff;stroke:#000000;stroke-width:0.5;" x="509.472" xlink:href="#m1113e85c6f" y="170.977451086"/>
     <use style="fill:#0000ff;stroke:#000000;stroke-width:0.5;" x="513.936" xlink:href="#m1113e85c6f" y="60.7191018617"/>
    </g>
   </g>
   <g id="patch_3">
    <path d="M 72 43.2 
L 518.4 43.2 
" style="fill:none;stroke:#000000;stroke-linecap:square;stroke-linejoin:miter;"/>
   </g>
   <g id="patch_4">
    <path d="M 518.4 388.8 
L 518.4 43.2 
" style="fill:none;stroke:#000000;stroke-linecap:square;stroke-linejoin:miter;"/>
   </g>
   <g id="patch_5">
    <path d="M 72 388.8 
L 518.4 388.8 
" style="fill:none;stroke:#000000;stroke-linecap:square;stroke-linejoin:miter;"/>
   </g>
   <g id="patch_6">
    <path d="M 72 388.8 
L 72 43.2 
" style="fill:none;stroke:#000000;stroke-linecap:square;stroke-linejoin:miter;"/>
   </g>
   <g id="matplotlib.axis_1">
    <g id="xtick_1">
     <g id="line2d_2">
      <defs>
       <path d="M 0 0 
L 0 -4 
" id="m1ef22f31bd" style="stroke:#000000;stroke-width:0.5;"/>
      </defs>
      <g>
       <use style="stroke:#000000;stroke-width:0.5;" x="72.0" xlink:href="#m1ef22f31bd" y="388.8"/>
      </g>
     </g>
     <g id="line2d_3">
      <defs>
       <path d="M 0 0 
L 0 4 
" id="mb1e8ac0d9f" style="stroke:#000000;stroke-width:0.5;"/>
      </defs>
      <g>
       <use style="stroke:#000000;stroke-width:0.5;" x="72.0" xlink:href="#mb1e8ac0d9f" y="43.2"/>
      </g>
     </g>
     <g id="text_1">
      <!-- 0.0 -->
      <defs>
       <path d="M 31.78125 66.40625 
Q 24.171875 66.40625 20.328125 58.90625 
Q 16.5 51.421875 16.5 36.375 
Q 16.5 21.390625 20.328125 13.890625 
Q 24.171875 6.390625 31.78125 6.390625 
Q 39.453125 6.390625 43.28125 13.890625 
Q 47.125 21.390625 47.125 36.375 
Q 47.125 51.421875 43.28125 58.90625 
Q 39.453125 66.40625 31.78125 66.40625 
M 31.78125 74.21875 
Q 44.046875 74.21875 50.515625 64.515625 
Q 56.984375 54.828125 56.984375 36.375 
Q 56.984375 17.96875 50.515625 8.265625 
Q 44.046875 -1.421875 31.78125 -1.421875 
Q 19.53125 -1.421875 13.0625 8.265625 
Q 6.59375 17.96875 6.59375 36.375 
Q 6.59375 54.828125 13.0625 64.515625 
Q 19.53125 74.21875 31.78125 74.21875 
" id="BitstreamVeraSans-Roman-30"/>
       <path d="M 10.6875 12.40625 
L 21 12.40625 
L 21 0 
L 10.6875 0 
z
" id="BitstreamVeraSans-Roman-2e"/>
      </defs>
      <g transform="translate(62.458125 401.918125)scale(0.12 -0.12)">
       <use xlink:href="#BitstreamVeraSans-Roman-30"/>
       <use x="63.623046875" xlink:href="#BitstreamVeraSans-Roman-2e"/>
       <use x="95.41015625" xlink:href="#BitstreamVeraSans-Roman-30"/>
      </g>
     </g>
    </g>
    <g id="xtick_2">
     <g id="line2d_4">
      <g>
       <use style="stroke:#000000;stroke-width:0.5;" x="161.28" xlink:href="#m1ef22f31bd" y="388.8"/>
      </g>
     </g>
     <g id="line2d_5">
      <g>
       <use style="stroke:#000000;stroke-width:0.5;" x="161.28" xlink:href="#mb1e8ac0d9f" y="43.2"/>
      </g>
     </g>
     <g id="text_2">
      <!-- 0.2 -->
      <defs>
       <path d="M 19.1875 8.296875 
L 53.609375 8.296875 
L 53.609375 0 
L 7.328125 0 
L 7.328125 8.296875 
Q 12.9375 14.109375 22.625 23.890625 
Q 32.328125 33.6875 34.8125 36.53125 
Q 39.546875 41.84375 41.421875 45.53125 
Q 43.3125 49.21875 43.3125 52.78125 
Q 43.3125 58.59375 39.234375 62.25 
Q 35.15625 65.921875 28.609375 65.921875 
Q 23.96875 65.921875 18.8125 64.3125 
Q 13.671875 62.703125 7.8125 59.421875 
L 7.8125 69.390625 
Q 13.765625 71.78125 18.9375 73 
Q 24.125 74.21875 28.421875 74.21875 
Q 39.75 74.21875 46.484375 68.546875 
Q 53.21875 62.890625 53.21875 53.421875 
Q 53.21875 48.921875 51.53125 44.890625 
Q 49.859375 40.875 45.40625 35.40625 
Q 44.1875 33.984375 37.640625 27.21875 
Q 31.109375 20.453125 19.1875 8.296875 
" id="BitstreamVeraSans-Roman-32"/>
      </defs>
      <g transform="translate(151.738125 401.918125)scale(0.12 -0.12)">
       <use xlink:href="#BitstreamVeraSans-Roman-30"/>
       <use x="63.623046875" xlink:href="#BitstreamVeraSans-Roman-2e"/>
       <use x="95.41015625" xlink:href="#BitstreamVeraSans-Roman-32"/>
      </g>
     </g>
    </g>
    <g id="xtick_3">
     <g id="line2d_6">
      <g>
       <use style="stroke:#000000;stroke-width:0.5;" x="250.56" xlink:href="#m1ef22f31bd" y="388.8"/>
      </g>
     </g>
     <g id="line2d_7">
      <g>
       <use style="stroke:#000000;stroke-width:0.5;" x="250.56" xlink:href="#mb1e8ac0d9f" y="43.2"/>
      </g>
     </g>
     <g id="text_3">
      <!-- 0.4 -->
      <defs>
       <path d="M 37.796875 64.3125 
L 12.890625 25.390625 
L 37.796875 25.390625 
z
M 35.203125 72.90625 
L 47.609375 72.90625 
L 47.609375 25.390625 
L 58.015625 25.390625 
L 58.015625 17.1875 
L 47.609375 17.1875 
L 47.609375 0 
L 37.796875 0 
L 37.796875 17.1875 
L 4.890625 17.1875 
L 4.890625 26.703125 
z
" id="BitstreamVeraSans-Roman-34"/>
      </defs>
      <g transform="translate(241.018125 401.918125)scale(0.12 -0.12)">
       <use xlink:href="#BitstreamVeraSans-Roman-30"/>
       <use x="63.623046875" xlink:href="#BitstreamVeraSans-Roman-2e"/>
       <use x="95.41015625" xlink:href="#BitstreamVeraSans-Roman-34"/>
      </g>
     </g>
    </g>
    <g id="xtick_4">
     <g id="line2d_8">
      <g>
       <use style="stroke:#000000;stroke-width:0.5;" x="339.84" xlink:href="#m1ef22f31bd" y="388.8"/>
      </g>
     </g>
     <g id="line2d_9">
      <g>
       <use style="stroke:#000000;stroke-width:0.5;" x="339.84" xlink:href="#mb1e8ac0d9f" y="43.2"/>
      </g>
     </g>
     <g id="text_4">
      <!-- 0.6 -->
      <defs>
       <path d="M 33.015625 40.375 
Q 26.375 40.375 22.484375 35.828125 
Q 18.609375 31.296875 18.609375 23.390625 
Q 18.609375 15.53125 22.484375 10.953125 
Q 26.375 6.390625 33.015625 6.390625 
Q 39.65625 6.390625 43.53125 10.953125 
Q 47.40625 15.53125 47.40625 23.390625 
Q 47.40625 31.296875 43.53125 35.828125 
Q 39.65625 40.375 33.015625 40.375 
M 52.59375 71.296875 
L 52.59375 62.3125 
Q 48.875 64.0625 45.09375 64.984375 
Q 41.3125 65.921875 37.59375 65.921875 
Q 27.828125 65.921875 22.671875 59.328125 
Q 17.53125 52.734375 16.796875 39.40625 
Q 19.671875 43.65625 24.015625 45.921875 
Q 28.375 48.1875 33.59375 48.1875 
Q 44.578125 48.1875 50.953125 41.515625 
Q 57.328125 34.859375 57.328125 23.390625 
Q 57.328125 12.15625 50.6875 5.359375 
Q 44.046875 -1.421875 33.015625 -1.421875 
Q 20.359375 -1.421875 13.671875 8.265625 
Q 6.984375 17.96875 6.984375 36.375 
Q 6.984375 53.65625 15.1875 63.9375 
Q 23.390625 74.21875 37.203125 74.21875 
Q 40.921875 74.21875 44.703125 73.484375 
Q 48.484375 72.75 52.59375 71.296875 
" id="BitstreamVeraSans-Roman-36"/>
      </defs>
      <g transform="translate(330.298125 401.918125)scale(0.12 -0.12)">
       <use xlink:href="#BitstreamVeraSans-Roman-30"/>
       <use x="63.623046875" xlink:href="#BitstreamVeraSans-Roman-2e"/>
       <use x="95.41015625" xlink:href="#BitstreamVeraSans-Roman-36"/>
      </g>
     </g>
    </g>
    <g id="xtick_5">
     <g id="line2d_10">
      <g>
       <use style="stroke:#000000;stroke-width:0.5;" x="429.12" xlink:href="#m1ef22f31bd" y="388.8"/>
      </g>
     </g>
     <g id="line2d_11">
      <g>
       <use style="stroke:#000000;stroke-width:0.5;" x="429.12" xlink:href="#mb1e8ac0d9f" y="43.2"/>
      </g>
     </g>
     <g id="text_5">
      <!-- 0.8 -->
      <defs>
       <path d="M 31.78125 34.625 
Q 24.75 34.625 20.71875 30.859375 
Q 16.703125 27.09375 16.703125 20.515625 
Q 16.703125 13.921875 20.71875 10.15625 
Q 24.75 6.390625 31.78125 6.390625 
Q 38.8125 6.390625 42.859375 10.171875 
Q 46.921875 13.96875 46.921875 20.515625 
Q 46.921875 27.09375 42.890625 30.859375 
Q 38.875 34.625 31.78125 34.625 
M 21.921875 38.8125 
Q 15.578125 40.375 12.03125 44.71875 
Q 8.5 49.078125 8.5 55.328125 
Q 8.5 64.0625 14.71875 69.140625 
Q 20.953125 74.21875 31.78125 74.21875 
Q 42.671875 74.21875 48.875 69.140625 
Q 55.078125 64.0625 55.078125 55.328125 
Q 55.078125 49.078125 51.53125 44.71875 
Q 48 40.375 41.703125 38.8125 
Q 48.828125 37.15625 52.796875 32.3125 
Q 56.78125 27.484375 56.78125 20.515625 
Q 56.78125 9.90625 50.3125 4.234375 
Q 43.84375 -1.421875 31.78125 -1.421875 
Q 19.734375 -1.421875 13.25 4.234375 
Q 6.78125 9.90625 6.78125 20.515625 
Q 6.78125 27.484375 10.78125 32.3125 
Q 14.796875 37.15625 21.921875 38.8125 
M 18.3125 54.390625 
Q 18.3125 48.734375 21.84375 45.5625 
Q 25.390625 42.390625 31.78125 42.390625 
Q 38.140625 42.390625 41.71875 45.5625 
Q 45.3125 48.734375 45.3125 54.390625 
Q 45.3125 60.0625 41.71875 63.234375 
Q 38.140625 66.40625 31.78125 66.40625 
Q 25.390625 66.40625 21.84375 63.234375 
Q 18.3125 60.0625 18.3125 54.390625 
" id="BitstreamVeraSans-Roman-38"/>
      </defs>
      <g transform="translate(419.578125 401.918125)scale(0.12 -0.12)">
       <use xlink:href="#BitstreamVeraSans-Roman-30"/>
       <use x="63.623046875" xlink:href="#BitstreamVeraSans-Roman-2e"/>
       <use x="95.41015625" xlink:href="#BitstreamVeraSans-Roman-38"/>
      </g>
     </g>
    </g>
    <g id="xtick_6">
     <g id="line2d_12">
      <g>
       <use style="stroke:#000000;stroke-width:0.5;" x="518.4" xlink:href="#m1ef22f31bd" y="388.8"/>
      </g>
     </g>
     <g id="line2d_13">
      <g>
       <use style="stroke:#000000;stroke-width:0.5;" x="518.4" xlink:href="#mb1e8ac0d9f" y="43.2"/>
      </g>
     </g>
     <g id="text_6">
      <!-- 1.0 -->
      <defs>
       <path d="M 12.40625 8.296875 
L 28.515625 8.296875 
L 28.515625 63.921875 
L 10.984375 60.40625 
L 10.984375 69.390625 
L 28.421875 72.90625 
L 38.28125 72.90625 
L 38.28125 8.296875 
L 54.390625 8.296875 
L 54.390625 0 
L 12.40625 0 
z
" id="BitstreamVeraSans-Roman-31"/>
      </defs>
      <g transform="translate(508.858125 401.918125)scale(0.12 -0.12)">
       <use xlink:href="#BitstreamVeraSans-Roman-31"/>
       <use x="63.623046875" xlink:href="#BitstreamVeraSans-Roman-2e"/>
       <use x="95.41015625" xlink:href="#BitstreamVeraSans-Roman-30"/>
      </g>
     </g>
    </g>
    <g id="text_7">
     <!-- Value of x -->
     <defs>
      <path id="BitstreamVeraSans-Roman-20"/>
      <path d="M 37.109375 75.984375 
L 37.109375 68.5 
L 28.515625 68.5 
Q 23.6875 68.5 21.796875 66.546875 
Q 19.921875 64.59375 19.921875 59.515625 
L 19.921875 54.6875 
L 34.71875 54.6875 
L 34.71875 47.703125 
L 19.921875 47.703125 
L 19.921875 0 
L 10.890625 0 
L 10.890625 47.703125 
L 2.296875 47.703125 
L 2.296875 54.6875 
L 10.890625 54.6875 
L 10.890625 58.5 
Q 10.890625 67.625 15.140625 71.796875 
Q 19.390625 75.984375 28.609375 75.984375 
z
" id="BitstreamVeraSans-Roman-66"/>
      <path d="M 54.890625 54.6875 
L 35.109375 28.078125 
L 55.90625 0 
L 45.3125 0 
L 29.390625 21.484375 
L 13.484375 0 
L 2.875 0 
L 24.125 28.609375 
L 4.6875 54.6875 
L 15.28125 54.6875 
L 29.78125 35.203125 
L 44.28125 54.6875 
z
" id="BitstreamVeraSans-Roman-78"/>
      <path d="M 30.609375 48.390625 
Q 23.390625 48.390625 19.1875 42.75 
Q 14.984375 37.109375 14.984375 27.296875 
Q 14.984375 17.484375 19.15625 11.84375 
Q 23.34375 6.203125 30.609375 6.203125 
Q 37.796875 6.203125 41.984375 11.859375 
Q 46.1875 17.53125 46.1875 27.296875 
Q 46.1875 37.015625 41.984375 42.703125 
Q 37.796875 48.390625 30.609375 48.390625 
M 30.609375 56 
Q 42.328125 56 49.015625 48.375 
Q 55.71875 40.765625 55.71875 27.296875 
Q 55.71875 13.875 49.015625 6.21875 
Q 42.328125 -1.421875 30.609375 -1.421875 
Q 18.84375 -1.421875 12.171875 6.21875 
Q 5.515625 13.875 5.515625 27.296875 
Q 5.515625 40.765625 12.171875 48.375 
Q 18.84375 56 30.609375 56 
" id="BitstreamVeraSans-Roman-6f"/>
      <path d="M 9.421875 75.984375 
L 18.40625 75.984375 
L 18.40625 0 
L 9.421875 0 
z
" id="BitstreamVeraSans-Roman-6c"/>
      <path d="M 28.609375 0 
L 0.78125 72.90625 
L 11.078125 72.90625 
L 34.1875 11.53125 
L 57.328125 72.90625 
L 67.578125 72.90625 
L 39.796875 0 
z
" id="BitstreamVeraSans-Roman-56"/>
      <path d="M 56.203125 29.59375 
L 56.203125 25.203125 
L 14.890625 25.203125 
Q 15.484375 15.921875 20.484375 11.0625 
Q 25.484375 6.203125 34.421875 6.203125 
Q 39.59375 6.203125 44.453125 7.46875 
Q 49.3125 8.734375 54.109375 11.28125 
L 54.109375 2.78125 
Q 49.265625 0.734375 44.1875 -0.34375 
Q 39.109375 -1.421875 33.890625 -1.421875 
Q 20.796875 -1.421875 13.15625 6.1875 
Q 5.515625 13.8125 5.515625 26.8125 
Q 5.515625 40.234375 12.765625 48.109375 
Q 20.015625 56 32.328125 56 
Q 43.359375 56 49.78125 48.890625 
Q 56.203125 41.796875 56.203125 29.59375 
M 47.21875 32.234375 
Q 47.125 39.59375 43.09375 43.984375 
Q 39.0625 48.390625 32.421875 48.390625 
Q 24.90625 48.390625 20.390625 44.140625 
Q 15.875 39.890625 15.1875 32.171875 
z
" id="BitstreamVeraSans-Roman-65"/>
      <path d="M 8.5 21.578125 
L 8.5 54.6875 
L 17.484375 54.6875 
L 17.484375 21.921875 
Q 17.484375 14.15625 20.5 10.265625 
Q 23.53125 6.390625 29.59375 6.390625 
Q 36.859375 6.390625 41.078125 11.03125 
Q 45.3125 15.671875 45.3125 23.6875 
L 45.3125 54.6875 
L 54.296875 54.6875 
L 54.296875 0 
L 45.3125 0 
L 45.3125 8.40625 
Q 42.046875 3.421875 37.71875 1 
Q 33.40625 -1.421875 27.6875 -1.421875 
Q 18.265625 -1.421875 13.375 4.4375 
Q 8.5 10.296875 8.5 21.578125 
" id="BitstreamVeraSans-Roman-75"/>
      <path d="M 34.28125 27.484375 
Q 23.390625 27.484375 19.1875 25 
Q 14.984375 22.515625 14.984375 16.5 
Q 14.984375 11.71875 18.140625 8.90625 
Q 21.296875 6.109375 26.703125 6.109375 
Q 34.1875 6.109375 38.703125 11.40625 
Q 43.21875 16.703125 43.21875 25.484375 
L 43.21875 27.484375 
z
M 52.203125 31.203125 
L 52.203125 0 
L 43.21875 0 
L 43.21875 8.296875 
Q 40.140625 3.328125 35.546875 0.953125 
Q 30.953125 -1.421875 24.3125 -1.421875 
Q 15.921875 -1.421875 10.953125 3.296875 
Q 6 8.015625 6 15.921875 
Q 6 25.140625 12.171875 29.828125 
Q 18.359375 34.515625 30.609375 34.515625 
L 43.21875 34.515625 
L 43.21875 35.40625 
Q 43.21875 41.609375 39.140625 45 
Q 35.0625 48.390625 27.6875 48.390625 
Q 23 48.390625 18.546875 47.265625 
Q 14.109375 46.140625 10.015625 43.890625 
L 10.015625 52.203125 
Q 14.9375 54.109375 19.578125 55.046875 
Q 24.21875 56 28.609375 56 
Q 40.484375 56 46.34375 49.84375 
Q 52.203125 43.703125 52.203125 31.203125 
" id="BitstreamVeraSans-Roman-61"/>
     </defs>
     <g transform="translate(265.115625 418.531875)scale(0.12 -0.12)">
      <use xlink:href="#BitstreamVeraSans-Roman-56"/>
      <use x="68.298828125" xlink:href="#BitstreamVeraSans-Roman-61"/>
      <use x="129.578125" xlink:href="#BitstreamVeraSans-Roman-6c"/>
      <use x="157.361328125" xlink:href="#BitstreamVeraSans-Roman-75"/>
      <use x="220.740234375" xlink:href="#BitstreamVeraSans-Roman-65"/>
      <use x="282.263671875" xlink:href="#BitstreamVeraSans-Roman-20"/>
      <use x="314.05078125" xlink:href="#BitstreamVeraSans-Roman-6f"/>
      <use x="375.232421875" xlink:href="#BitstreamVeraSans-Roman-66"/>
      <use x="410.4375" xlink:href="#BitstreamVeraSans-Roman-20"/>
      <use x="442.224609375" xlink:href="#BitstreamVeraSans-Roman-78"/>
     </g>
    </g>
   </g>
   <g id="matplotlib.axis_2">
    <g id="ytick_1">
     <g id="line2d_14">
      <defs>
       <path d="M 0 0 
L 4 0 
" id="m5625adcedd" style="stroke:#000000;stroke-width:0.5;"/>
      </defs>
      <g>
       <use style="stroke:#000000;stroke-width:0.5;" x="72.0" xlink:href="#m5625adcedd" y="388.8"/>
      </g>
     </g>
     <g id="line2d_15">
      <defs>
       <path d="M 0 0 
L -4 0 
" id="m631a83278e" style="stroke:#000000;stroke-width:0.5;"/>
      </defs>
      <g>
       <use style="stroke:#000000;stroke-width:0.5;" x="518.4" xlink:href="#m631a83278e" y="388.8"/>
      </g>
     </g>
     <g id="text_8">
      <!-- 0 -->
      <g transform="translate(60.365 392.11125)scale(0.12 -0.12)">
       <use xlink:href="#BitstreamVeraSans-Roman-30"/>
      </g>
     </g>
    </g>
    <g id="ytick_2">
     <g id="line2d_16">
      <g>
       <use style="stroke:#000000;stroke-width:0.5;" x="72.0" xlink:href="#m5625adcedd" y="331.2"/>
      </g>
     </g>
     <g id="line2d_17">
      <g>
       <use style="stroke:#000000;stroke-width:0.5;" x="518.4" xlink:href="#m631a83278e" y="331.2"/>
      </g>
     </g>
     <g id="text_9">
      <!-- 2 -->
      <g transform="translate(60.365 334.51125)scale(0.12 -0.12)">
       <use xlink:href="#BitstreamVeraSans-Roman-32"/>
      </g>
     </g>
    </g>
    <g id="ytick_3">
     <g id="line2d_18">
      <g>
       <use style="stroke:#000000;stroke-width:0.5;" x="72.0" xlink:href="#m5625adcedd" y="273.6"/>
      </g>
     </g>
     <g id="line2d_19">
      <g>
       <use style="stroke:#000000;stroke-width:0.5;" x="518.4" xlink:href="#m631a83278e" y="273.6"/>
      </g>
     </g>
     <g id="text_10">
      <!-- 4 -->
      <g transform="translate(60.365 276.91125)scale(0.12 -0.12)">
       <use xlink:href="#BitstreamVeraSans-Roman-34"/>
      </g>
     </g>
    </g>
    <g id="ytick_4">
     <g id="line2d_20">
      <g>
       <use style="stroke:#000000;stroke-width:0.5;" x="72.0" xlink:href="#m5625adcedd" y="216.0"/>
      </g>
     </g>
     <g id="line2d_21">
      <g>
       <use style="stroke:#000000;stroke-width:0.5;" x="518.4" xlink:href="#m631a83278e" y="216.0"/>
      </g>
     </g>
     <g id="text_11">
      <!-- 6 -->
      <g transform="translate(60.365 219.31125)scale(0.12 -0.12)">
       <use xlink:href="#BitstreamVeraSans-Roman-36"/>
      </g>
     </g>
    </g>
    <g id="ytick_5">
     <g id="line2d_22">
      <g>
       <use style="stroke:#000000;stroke-width:0.5;" x="72.0" xlink:href="#m5625adcedd" y="158.4"/>
      </g>
     </g>
     <g id="line2d_23">
      <g>
       <use style="stroke:#000000;stroke-width:0.5;" x="518.4" xlink:href="#m631a83278e" y="158.4"/>
      </g>
     </g>
     <g id="text_12">
      <!-- 8 -->
      <g transform="translate(60.365 161.71125)scale(0.12 -0.12)">
       <use xlink:href="#BitstreamVeraSans-Roman-38"/>
      </g>
     </g>
    </g>
    <g id="ytick_6">
     <g id="line2d_24">
      <g>
       <use style="stroke:#000000;stroke-width:0.5;" x="72.0" xlink:href="#m5625adcedd" y="100.8"/>
      </g>
     </g>
     <g id="line2d_25">
      <g>
       <use style="stroke:#000000;stroke-width:0.5;" x="518.4" xlink:href="#m631a83278e" y="100.8"/>
      </g>
     </g>
     <g id="text_13">
      <!-- 10 -->
      <g transform="translate(52.73 104.11125)scale(0.12 -0.12)">
       <use xlink:href="#BitstreamVeraSans-Roman-31"/>
       <use x="63.623046875" xlink:href="#BitstreamVeraSans-Roman-30"/>
      </g>
     </g>
    </g>
    <g id="ytick_7">
     <g id="line2d_26">
      <g>
       <use style="stroke:#000000;stroke-width:0.5;" x="72.0" xlink:href="#m5625adcedd" y="43.2"/>
      </g>
     </g>
     <g id="line2d_27">
      <g>
       <use style="stroke:#000000;stroke-width:0.5;" x="518.4" xlink:href="#m631a83278e" y="43.2"/>
      </g>
     </g>
     <g id="text_14">
      <!-- 12 -->
      <g transform="translate(52.73 46.51125)scale(0.12 -0.12)">
       <use xlink:href="#BitstreamVeraSans-Roman-31"/>
       <use x="63.623046875" xlink:href="#BitstreamVeraSans-Roman-32"/>
      </g>
     </g>
    </g>
    <g id="text_15">
     <!-- Value of y -->
     <defs>
      <path d="M 32.171875 -5.078125 
Q 28.375 -14.84375 24.75 -17.8125 
Q 21.140625 -20.796875 15.09375 -20.796875 
L 7.90625 -20.796875 
L 7.90625 -13.28125 
L 13.1875 -13.28125 
Q 16.890625 -13.28125 18.9375 -11.515625 
Q 21 -9.765625 23.484375 -3.21875 
L 25.09375 0.875 
L 2.984375 54.6875 
L 12.5 54.6875 
L 29.59375 11.921875 
L 46.6875 54.6875 
L 56.203125 54.6875 
z
" id="BitstreamVeraSans-Roman-79"/>
     </defs>
     <g transform="translate(45.234375 246.084375)rotate(-90.0)scale(0.12 -0.12)">
      <use xlink:href="#BitstreamVeraSans-Roman-56"/>
      <use x="68.298828125" xlink:href="#BitstreamVeraSans-Roman-61"/>
      <use x="129.578125" xlink:href="#BitstreamVeraSans-Roman-6c"/>
      <use x="157.361328125" xlink:href="#BitstreamVeraSans-Roman-75"/>
      <use x="220.740234375" xlink:href="#BitstreamVeraSans-Roman-65"/>
      <use x="282.263671875" xlink:href="#BitstreamVeraSans-Roman-20"/>
      <use x="314.05078125" xlink:href="#BitstreamVeraSans-Roman-6f"/>
      <use x="375.232421875" xlink:href="#BitstreamVeraSans-Roman-66"/>
      <use x="410.4375" xlink:href="#BitstreamVeraSans-Roman-20"/>
      <use x="442.224609375" xlink:href="#BitstreamVeraSans-Roman-79"/>
     </g>
    </g>
   </g>
   <g id="text_16">
    <!-- Approximate solution with Euler's Method -->
    <defs>
     <path d="M 9.8125 72.90625 
L 24.515625 72.90625 
L 43.109375 23.296875 
L 61.8125 72.90625 
L 76.515625 72.90625 
L 76.515625 0 
L 66.890625 0 
L 66.890625 64.015625 
L 48.09375 14.015625 
L 38.1875 14.015625 
L 19.390625 64.015625 
L 19.390625 0 
L 9.8125 0 
z
" id="BitstreamVeraSans-Roman-4d"/>
     <path d="M 17.921875 72.90625 
L 17.921875 45.796875 
L 9.625 45.796875 
L 9.625 72.90625 
z
" id="BitstreamVeraSans-Roman-27"/>
     <path d="M 54.890625 33.015625 
L 54.890625 0 
L 45.90625 0 
L 45.90625 32.71875 
Q 45.90625 40.484375 42.875 44.328125 
Q 39.84375 48.1875 33.796875 48.1875 
Q 26.515625 48.1875 22.3125 43.546875 
Q 18.109375 38.921875 18.109375 30.90625 
L 18.109375 0 
L 9.078125 0 
L 9.078125 54.6875 
L 18.109375 54.6875 
L 18.109375 46.1875 
Q 21.34375 51.125 25.703125 53.5625 
Q 30.078125 56 35.796875 56 
Q 45.21875 56 50.046875 50.171875 
Q 54.890625 44.34375 54.890625 33.015625 
" id="BitstreamVeraSans-Roman-6e"/>
     <path d="M 52 44.1875 
Q 55.375 50.25 60.0625 53.125 
Q 64.75 56 71.09375 56 
Q 79.640625 56 84.28125 50.015625 
Q 88.921875 44.046875 88.921875 33.015625 
L 88.921875 0 
L 79.890625 0 
L 79.890625 32.71875 
Q 79.890625 40.578125 77.09375 44.375 
Q 74.3125 48.1875 68.609375 48.1875 
Q 61.625 48.1875 57.5625 43.546875 
Q 53.515625 38.921875 53.515625 30.90625 
L 53.515625 0 
L 44.484375 0 
L 44.484375 32.71875 
Q 44.484375 40.625 41.703125 44.40625 
Q 38.921875 48.1875 33.109375 48.1875 
Q 26.21875 48.1875 22.15625 43.53125 
Q 18.109375 38.875 18.109375 30.90625 
L 18.109375 0 
L 9.078125 0 
L 9.078125 54.6875 
L 18.109375 54.6875 
L 18.109375 46.1875 
Q 21.1875 51.21875 25.484375 53.609375 
Q 29.78125 56 35.6875 56 
Q 41.65625 56 45.828125 52.96875 
Q 50 49.953125 52 44.1875 
" id="BitstreamVeraSans-Roman-6d"/>
     <path d="M 9.8125 72.90625 
L 55.90625 72.90625 
L 55.90625 64.59375 
L 19.671875 64.59375 
L 19.671875 43.015625 
L 54.390625 43.015625 
L 54.390625 34.71875 
L 19.671875 34.71875 
L 19.671875 8.296875 
L 56.78125 8.296875 
L 56.78125 0 
L 9.8125 0 
z
" id="BitstreamVeraSans-Roman-45"/>
     <path d="M 9.421875 54.6875 
L 18.40625 54.6875 
L 18.40625 0 
L 9.421875 0 
z
M 9.421875 75.984375 
L 18.40625 75.984375 
L 18.40625 64.59375 
L 9.421875 64.59375 
z
" id="BitstreamVeraSans-Roman-69"/>
     <path d="M 54.890625 33.015625 
L 54.890625 0 
L 45.90625 0 
L 45.90625 32.71875 
Q 45.90625 40.484375 42.875 44.328125 
Q 39.84375 48.1875 33.796875 48.1875 
Q 26.515625 48.1875 22.3125 43.546875 
Q 18.109375 38.921875 18.109375 30.90625 
L 18.109375 0 
L 9.078125 0 
L 9.078125 75.984375 
L 18.109375 75.984375 
L 18.109375 46.1875 
Q 21.34375 51.125 25.703125 53.5625 
Q 30.078125 56 35.796875 56 
Q 45.21875 56 50.046875 50.171875 
Q 54.890625 44.34375 54.890625 33.015625 
" id="BitstreamVeraSans-Roman-68"/>
     <path d="M 34.1875 63.1875 
L 20.796875 26.90625 
L 47.609375 26.90625 
z
M 28.609375 72.90625 
L 39.796875 72.90625 
L 67.578125 0 
L 57.328125 0 
L 50.6875 18.703125 
L 17.828125 18.703125 
L 11.1875 0 
L 0.78125 0 
z
" id="BitstreamVeraSans-Roman-41"/>
     <path d="M 45.40625 46.390625 
L 45.40625 75.984375 
L 54.390625 75.984375 
L 54.390625 0 
L 45.40625 0 
L 45.40625 8.203125 
Q 42.578125 3.328125 38.25 0.953125 
Q 33.9375 -1.421875 27.875 -1.421875 
Q 17.96875 -1.421875 11.734375 6.484375 
Q 5.515625 14.40625 5.515625 27.296875 
Q 5.515625 40.1875 11.734375 48.09375 
Q 17.96875 56 27.875 56 
Q 33.9375 56 38.25 53.625 
Q 42.578125 51.265625 45.40625 46.390625 
M 14.796875 27.296875 
Q 14.796875 17.390625 18.875 11.75 
Q 22.953125 6.109375 30.078125 6.109375 
Q 37.203125 6.109375 41.296875 11.75 
Q 45.40625 17.390625 45.40625 27.296875 
Q 45.40625 37.203125 41.296875 42.84375 
Q 37.203125 48.484375 30.078125 48.484375 
Q 22.953125 48.484375 18.875 42.84375 
Q 14.796875 37.203125 14.796875 27.296875 
" id="BitstreamVeraSans-Roman-64"/>
     <path d="M 4.203125 54.6875 
L 13.1875 54.6875 
L 24.421875 12.015625 
L 35.59375 54.6875 
L 46.1875 54.6875 
L 57.421875 12.015625 
L 68.609375 54.6875 
L 77.59375 54.6875 
L 63.28125 0 
L 52.6875 0 
L 40.921875 44.828125 
L 29.109375 0 
L 18.5 0 
z
" id="BitstreamVeraSans-Roman-77"/>
     <path d="M 18.3125 70.21875 
L 18.3125 54.6875 
L 36.8125 54.6875 
L 36.8125 47.703125 
L 18.3125 47.703125 
L 18.3125 18.015625 
Q 18.3125 11.328125 20.140625 9.421875 
Q 21.96875 7.515625 27.59375 7.515625 
L 36.8125 7.515625 
L 36.8125 0 
L 27.59375 0 
Q 17.1875 0 13.234375 3.875 
Q 9.28125 7.765625 9.28125 18.015625 
L 9.28125 47.703125 
L 2.6875 47.703125 
L 2.6875 54.6875 
L 9.28125 54.6875 
L 9.28125 70.21875 
z
" id="BitstreamVeraSans-Roman-74"/>
     <path d="M 41.109375 46.296875 
Q 39.59375 47.171875 37.8125 47.578125 
Q 36.03125 48 33.890625 48 
Q 26.265625 48 22.1875 43.046875 
Q 18.109375 38.09375 18.109375 28.8125 
L 18.109375 0 
L 9.078125 0 
L 9.078125 54.6875 
L 18.109375 54.6875 
L 18.109375 46.1875 
Q 20.953125 51.171875 25.484375 53.578125 
Q 30.03125 56 36.53125 56 
Q 37.453125 56 38.578125 55.875 
Q 39.703125 55.765625 41.0625 55.515625 
z
" id="BitstreamVeraSans-Roman-72"/>
     <path d="M 44.28125 53.078125 
L 44.28125 44.578125 
Q 40.484375 46.53125 36.375 47.5 
Q 32.28125 48.484375 27.875 48.484375 
Q 21.1875 48.484375 17.84375 46.4375 
Q 14.5 44.390625 14.5 40.28125 
Q 14.5 37.15625 16.890625 35.375 
Q 19.28125 33.59375 26.515625 31.984375 
L 29.59375 31.296875 
Q 39.15625 29.25 43.1875 25.515625 
Q 47.21875 21.78125 47.21875 15.09375 
Q 47.21875 7.46875 41.1875 3.015625 
Q 35.15625 -1.421875 24.609375 -1.421875 
Q 20.21875 -1.421875 15.453125 -0.5625 
Q 10.6875 0.296875 5.421875 2 
L 5.421875 11.28125 
Q 10.40625 8.6875 15.234375 7.390625 
Q 20.0625 6.109375 24.8125 6.109375 
Q 31.15625 6.109375 34.5625 8.28125 
Q 37.984375 10.453125 37.984375 14.40625 
Q 37.984375 18.0625 35.515625 20.015625 
Q 33.0625 21.96875 24.703125 23.78125 
L 21.578125 24.515625 
Q 13.234375 26.265625 9.515625 29.90625 
Q 5.8125 33.546875 5.8125 39.890625 
Q 5.8125 47.609375 11.28125 51.796875 
Q 16.75 56 26.8125 56 
Q 31.78125 56 36.171875 55.265625 
Q 40.578125 54.546875 44.28125 53.078125 
" id="BitstreamVeraSans-Roman-73"/>
     <path d="M 18.109375 8.203125 
L 18.109375 -20.796875 
L 9.078125 -20.796875 
L 9.078125 54.6875 
L 18.109375 54.6875 
L 18.109375 46.390625 
Q 20.953125 51.265625 25.265625 53.625 
Q 29.59375 56 35.59375 56 
Q 45.5625 56 51.78125 48.09375 
Q 58.015625 40.1875 58.015625 27.296875 
Q 58.015625 14.40625 51.78125 6.484375 
Q 45.5625 -1.421875 35.59375 -1.421875 
Q 29.59375 -1.421875 25.265625 0.953125 
Q 20.953125 3.328125 18.109375 8.203125 
M 48.6875 27.296875 
Q 48.6875 37.203125 44.609375 42.84375 
Q 40.53125 48.484375 33.40625 48.484375 
Q 26.265625 48.484375 22.1875 42.84375 
Q 18.109375 37.203125 18.109375 27.296875 
Q 18.109375 17.390625 22.1875 11.75 
Q 26.265625 6.109375 33.40625 6.109375 
Q 40.53125 6.109375 44.609375 11.75 
Q 48.6875 17.390625 48.6875 27.296875 
" id="BitstreamVeraSans-Roman-70"/>
    </defs>
    <g transform="translate(144.658125 38.2)scale(0.144 -0.144)">
     <use xlink:href="#BitstreamVeraSans-Roman-41"/>
     <use x="68.408203125" xlink:href="#BitstreamVeraSans-Roman-70"/>
     <use x="131.884765625" xlink:href="#BitstreamVeraSans-Roman-70"/>
     <use x="195.361328125" xlink:href="#BitstreamVeraSans-Roman-72"/>
     <use x="236.443359375" xlink:href="#BitstreamVeraSans-Roman-6f"/>
     <use x="297.578125" xlink:href="#BitstreamVeraSans-Roman-78"/>
     <use x="356.7578125" xlink:href="#BitstreamVeraSans-Roman-69"/>
     <use x="384.541015625" xlink:href="#BitstreamVeraSans-Roman-6d"/>
     <use x="481.953125" xlink:href="#BitstreamVeraSans-Roman-61"/>
     <use x="543.232421875" xlink:href="#BitstreamVeraSans-Roman-74"/>
     <use x="582.44140625" xlink:href="#BitstreamVeraSans-Roman-65"/>
     <use x="643.96484375" xlink:href="#BitstreamVeraSans-Roman-20"/>
     <use x="675.751953125" xlink:href="#BitstreamVeraSans-Roman-73"/>
     <use x="727.8515625" xlink:href="#BitstreamVeraSans-Roman-6f"/>
     <use x="789.033203125" xlink:href="#BitstreamVeraSans-Roman-6c"/>
     <use x="816.81640625" xlink:href="#BitstreamVeraSans-Roman-75"/>
     <use x="880.1953125" xlink:href="#BitstreamVeraSans-Roman-74"/>
     <use x="919.404296875" xlink:href="#BitstreamVeraSans-Roman-69"/>
     <use x="947.1875" xlink:href="#BitstreamVeraSans-Roman-6f"/>
     <use x="1008.36914062" xlink:href="#BitstreamVeraSans-Roman-6e"/>
     <use x="1071.74804688" xlink:href="#BitstreamVeraSans-Roman-20"/>
     <use x="1103.53515625" xlink:href="#BitstreamVeraSans-Roman-77"/>
     <use x="1185.32226562" xlink:href="#BitstreamVeraSans-Roman-69"/>
     <use x="1213.10546875" xlink:href="#BitstreamVeraSans-Roman-74"/>
     <use x="1252.31445312" xlink:href="#BitstreamVeraSans-Roman-68"/>
     <use x="1315.69335938" xlink:href="#BitstreamVeraSans-Roman-20"/>
     <use x="1347.48046875" xlink:href="#BitstreamVeraSans-Roman-45"/>
     <use x="1410.6640625" xlink:href="#BitstreamVeraSans-Roman-75"/>
     <use x="1474.04296875" xlink:href="#BitstreamVeraSans-Roman-6c"/>
     <use x="1501.82617188" xlink:href="#BitstreamVeraSans-Roman-65"/>
     <use x="1563.34960938" xlink:href="#BitstreamVeraSans-Roman-72"/>
     <use x="1604.46289062" xlink:href="#BitstreamVeraSans-Roman-27"/>
     <use x="1631.953125" xlink:href="#BitstreamVeraSans-Roman-73"/>
     <use x="1684.05273438" xlink:href="#BitstreamVeraSans-Roman-20"/>
     <use x="1715.83984375" xlink:href="#BitstreamVeraSans-Roman-4d"/>
     <use x="1802.11914062" xlink:href="#BitstreamVeraSans-Roman-65"/>
     <use x="1863.64257812" xlink:href="#BitstreamVeraSans-Roman-74"/>
     <use x="1902.8515625" xlink:href="#BitstreamVeraSans-Roman-68"/>
     <use x="1966.23046875" xlink:href="#BitstreamVeraSans-Roman-6f"/>
     <use x="2027.41210938" xlink:href="#BitstreamVeraSans-Roman-64"/>
    </g>
   </g>
  </g>
 </g>
 <defs>
  <clipPath id="p070b5def87">
   <rect height="345.6" width="446.4" x="72.0" y="43.2"/>
  </clipPath>
 </defs>
</svg>
